<svg version="1.2" xmlns="http://www.w3.org/2000/svg" viewBox="0 0 26 26" width="26" height="26"><style>.a{fill:none}.b{fill:#d4e1f4}.c{fill:#165df5}.d{fill:#ea8d1f}</style><path class="a" d="m0 0h26v26h-26z"/><path class="b" d="m8.8 21.9q-0.5 0-0.8-0.1-0.4-0.2-0.7-0.5-0.3-0.3-0.5-0.7-0.1-0.4-0.2-0.8v-14.2q0 0 0.1-0.1 0 0 0-0.1 0-0.1 0-0.1 0-0.1 0-0.2h-0.1q-0.4 0-0.8 0.2-0.3 0.1-0.6 0.4-0.3 0.3-0.5 0.7-0.2 0.4-0.2 0.8v14.2q0 0.4 0.2 0.8 0.2 0.4 0.5 0.7 0.3 0.3 0.6 0.4 0.4 0.2 0.8 0.2h13.7q0.4 0 0.7-0.1 0.4-0.2 0.6-0.4 0.3-0.2 0.5-0.5 0.2-0.3 0.3-0.6z"/><path fill-rule="evenodd" class="c" d="m21.4 4.7q0.4 0.2 0.8 0.6 0.4 0.4 0.6 0.8 0.2 0.5 0.2 1v14.3q0 0.5-0.2 1-0.2 0.5-0.6 0.8-0.4 0.4-0.8 0.6-0.5 0.2-1 0.2h-13.8q-0.5 0-1-0.2-0.4-0.2-0.8-0.6-0.4-0.3-0.6-0.8-0.2-0.5-0.2-1v-14.3q0-0.5 0.2-1 0.2-0.5 0.6-0.8 0.4-0.4 0.8-0.6 0.5-0.2 1-0.2h2.2v-1q0-0.2 0.2-0.4 0.1-0.1 0.4-0.1 0.2 0 0.3 0.1 0.2 0.2 0.2 0.4v1h7.2v-1q0-0.2 0.2-0.4 0.1-0.1 0.3-0.1 0.3 0 0.4 0.1 0.2 0.2 0.2 0.4v1h2.2q0.5 0 1 0.2zm0.5 4.8h-16.8v11.9q0 0.3 0.1 0.6 0.1 0.3 0.3 0.5 0.2 0.2 0.5 0.3 0.3 0.2 0.6 0.2h13.8q0.3 0 0.6-0.2 0.3-0.1 0.5-0.3 0.2-0.2 0.3-0.5 0.1-0.3 0.1-0.6zm0-2.3q0-0.3-0.1-0.6-0.1-0.3-0.3-0.5-0.2-0.3-0.5-0.4-0.3-0.1-0.6-0.1h-2.2v1q0 0.2-0.2 0.4-0.1 0.1-0.4 0.1-0.2 0-0.3-0.1-0.2-0.2-0.2-0.4v-1h-7.2v1q0 0.2-0.2 0.4-0.1 0.1-0.3 0.1-0.3 0-0.4-0.1-0.2-0.2-0.2-0.4v-1h-2.2q-0.3 0-0.6 0.1-0.3 0.1-0.5 0.4-0.2 0.2-0.3 0.5-0.1 0.3-0.1 0.6v1.3h16.8z"/><path class="d" d="m18.8 13.9h-10.6q-0.2 0-0.4 0.1-0.1 0.2-0.2 0.4 0.1 0.2 0.2 0.4 0.2 0.2 0.4 0.2h10.6q0.2 0 0.4-0.2 0.1-0.2 0.2-0.4-0.1-0.2-0.2-0.4-0.2-0.1-0.4-0.1z"/><path class="d" d="m14.3 17.4h-6.1q-0.2 0-0.4 0.2-0.1 0.1-0.2 0.4 0.1 0.2 0.2 0.3 0.2 0.2 0.4 0.2h6.1q0.3 0 0.4-0.2 0.2-0.1 0.2-0.3 0-0.3-0.2-0.4-0.1-0.2-0.4-0.2z"/></svg>