<svg version="1.2" xmlns="http://www.w3.org/2000/svg" viewBox="0 0 56 55" width="56" height="55"><style>.a{fill:none}.b{fill:#d4e1f4}.c{fill:#ea8d1f}.d{fill:#165df5}</style><path class="a" d="m0 0h55v55h-55z"/><path class="b" d="m14.9 48.3q-0.8 0-1.5-0.3-0.7-0.3-1.2-0.8-0.5-0.5-0.8-1.2-0.3-0.7-0.3-1.5v-20.1h-4.6v24.7q0 0.8 0.3 1.5 0.3 0.6 0.8 1.2 0.6 0.5 1.2 0.8 0.7 0.3 1.5 0.3h35.5q0.7 0 1.4-0.3 0.7-0.3 1.2-0.8 0.6-0.6 0.8-1.2 0.3-0.7 0.3-1.5v-0.8z"/><path class="b" d="m7.7 19.2v-6.3h-0.8q-0.8 0-1.5 0.2-0.6 0.3-1.2 0.9-0.5 0.5-0.8 1.2-0.3 0.7-0.3 1.4v5.6h17.9v-3z"/><path class="c" d="m28.1 12.9q-0.4 0-0.6-0.2-0.3-0.2-0.4-0.5-0.1-0.3-0.1-0.6 0.1-0.3 0.3-0.6l9.4-9.4c1.1-1 2.5-1.6 4-1.6 1.4 0 2.9 0.6 3.9 1.6 1 1.1 1.6 2.5 1.6 4 0 1.4-0.6 2.9-1.6 3.9l-2.9 3q-0.4 0.3-0.8 0.3-0.4 0-0.7-0.3-0.4-0.3-0.4-0.7 0-0.4 0.3-0.8l3-3c0.6-0.6 1-1.5 1-2.4 0-0.9-0.4-1.8-1-2.5-0.7-0.6-1.5-1-2.4-1-1 0-1.8 0.4-2.5 1l-9.4 9.4q-0.1 0.1-0.1 0.2-0.1 0-0.2 0.1-0.1 0-0.2 0-0.1 0.1-0.2 0.1z"/><path class="c" d="m15.5 12.8q-0.1 0-0.2 0-0.1 0-0.2-0.1-0.1 0-0.2-0.1-0.1 0-0.2-0.1l-0.8-0.8c-1-1-1.6-2.5-1.6-3.9 0-1.5 0.6-2.9 1.6-4 1.1-1 2.5-1.6 4-1.6 1.4 0 2.9 0.6 3.9 1.6l7.1 7.1c0.2 0.2 0.3 0.5 0.3 0.8 0 0.3-0.1 0.6-0.3 0.8-0.2 0.2-0.4 0.3-0.7 0.3-0.3 0-0.6-0.1-0.8-0.3l-7.1-7.2c-0.7-0.6-1.5-1-2.4-1-0.9 0-1.8 0.4-2.5 1-0.6 0.7-1 1.6-1 2.5 0 0.9 0.4 1.7 1 2.4l0.8 0.8q0.2 0.2 0.3 0.5 0.1 0.3 0 0.6-0.2 0.3-0.4 0.5-0.3 0.2-0.6 0.2z"/><path fill-rule="evenodd" class="c" d="m31.8 50.9q0 0-0.1 0 0 0-0.1 0 0 0-0.1-0.1 0 0-0.1 0l-3.4-1.3-3.4 1.3q-0.1 0.1-0.3 0.1-0.2 0-0.4-0.1-0.2 0-0.3-0.1-0.1-0.2-0.2-0.3l-2-3-3.5-1q-0.2 0-0.4-0.1-0.1-0.2-0.2-0.3-0.1-0.1-0.2-0.3 0-0.2 0-0.4l0.2-3.6-2.3-2.8q-0.1-0.2-0.2-0.4-0.1-0.1-0.1-0.3 0-0.2 0.1-0.4 0.1-0.1 0.2-0.3l2.3-2.8-0.2-3.6q0-0.2 0-0.4 0.1-0.2 0.2-0.3 0.1-0.2 0.2-0.3 0.2-0.1 0.4-0.1l3.5-1 2-3q0.1-0.2 0.2-0.3 0.1-0.1 0.3-0.1 0.2-0.1 0.4-0.1 0.2 0 0.3 0.1l3.4 1.3 3.4-1.3q0.2-0.1 0.4-0.1 0.2 0 0.3 0.1 0.2 0 0.4 0.1 0.1 0.1 0.2 0.3l2 3 3.5 1q0.2 0 0.3 0.1 0.2 0.1 0.3 0.3 0.1 0.1 0.1 0.3 0.1 0.2 0.1 0.4l-0.2 3.6 2.3 2.8q0.1 0.2 0.2 0.3 0 0.2 0 0.4 0 0.2 0 0.3-0.1 0.2-0.2 0.4l-2.3 2.8 0.2 3.6q0 0.2-0.1 0.4 0 0.2-0.1 0.3-0.1 0.1-0.3 0.3-0.1 0.1-0.3 0.1l-3.5 1-2 3q-0.1 0.1-0.2 0.2-0.1 0.1-0.2 0.1-0.1 0.1-0.2 0.1-0.2 0.1-0.3 0.1zm-3.8-3.6q0.1 0 0.1 0 0.1 0 0.1 0 0.1 0 0.1 0 0.1 0.1 0.1 0.1l3 1.1 1.7-2.7q0.1 0 0.1-0.1 0.1-0.1 0.2-0.1 0.1-0.1 0.2-0.1 0-0.1 0.1-0.1l3.1-0.8-0.2-3.2q0-0.1 0.1-0.2 0-0.1 0-0.2 0-0.1 0.1-0.2 0-0.1 0.1-0.1l2-2.5-2-2.5q-0.1-0.1-0.1-0.1-0.1-0.1-0.1-0.2 0-0.1 0-0.2-0.1-0.1-0.1-0.2l0.2-3.2-3.1-0.8q-0.1 0-0.2-0.1 0 0-0.1-0.1-0.1 0-0.2-0.1 0-0.1-0.1-0.2l-1.7-2.6-3 1.1q-0.1 0-0.2 0.1-0.1 0-0.2 0-0.1 0-0.2 0-0.1-0.1-0.2-0.1l-2.9-1.1-1.8 2.6q0 0.1-0.1 0.2 0 0.1-0.1 0.1-0.1 0.1-0.2 0.1-0.1 0.1-0.2 0.1l-3 0.8 0.1 3.2q0 0.1 0 0.2 0 0.1 0 0.2-0.1 0.1-0.1 0.2-0.1 0-0.1 0.1l-2 2.5 2 2.5q0 0 0.1 0.1 0 0.1 0.1 0.2 0 0.1 0 0.2 0 0.1 0 0.2l-0.1 3.2 3 0.8q0.1 0 0.2 0.1 0.1 0 0.2 0.1 0.1 0 0.1 0.1 0.1 0.1 0.1 0.1l1.8 2.7 2.9-1.1q0.1 0 0.1-0.1 0.1 0 0.1 0 0.1 0 0.1 0 0.1 0 0.1 0z"/><path fill-rule="evenodd" class="d" d="m23.1 37q-0.6-0.2-1-0.7-0.4-0.4-0.7-1-0.2-0.6-0.2-1.2c0-1.3 0.7-2.5 1.9-2.9 1.2-0.5 2.6-0.3 3.5 0.6 0.9 0.9 1.2 2.3 0.7 3.5-0.5 1.2-1.7 1.9-3 1.9q-0.6 0-1.2-0.2zm0.8-3.9q-0.1 0.1-0.3 0.2-0.1 0.2-0.2 0.4-0.1 0.2-0.1 0.4c0 0.4 0.3 0.8 0.6 0.9 0.4 0.2 0.9 0.1 1.2-0.2 0.3-0.3 0.3-0.7 0.2-1.1-0.2-0.4-0.5-0.7-1-0.7q-0.2 0-0.4 0.1z"/><path fill-rule="evenodd" class="d" d="m28.6 41.3q0.3-0.6 0.7-1.1 0.5-0.4 1-0.7 0.6-0.2 1.3-0.2c1.2 0 2.4 0.8 2.9 2 0.5 1.1 0.2 2.5-0.7 3.4-0.9 0.9-2.3 1.2-3.5 0.7-1.1-0.5-1.9-1.6-1.9-2.9q0-0.7 0.2-1.2zm3.9 0.8q-0.1-0.2-0.2-0.4-0.2-0.1-0.3-0.2-0.2-0.1-0.4-0.1c-0.5 0-0.8 0.3-1 0.7-0.2 0.4-0.1 0.8 0.2 1.1 0.3 0.3 0.8 0.4 1.2 0.2 0.3-0.1 0.6-0.5 0.6-0.9q0-0.2-0.1-0.4z"/><path class="d" d="m24.3 44q0.1 0.1 0.3 0.1 0.2 0.1 0.5 0 0.2 0 0.3-0.1 0.2-0.1 0.3-0.3l6.8-10.3c0.1-0.3 0.2-0.6 0.1-0.8-0.1-0.3-0.2-0.6-0.5-0.7-0.2-0.2-0.5-0.2-0.8-0.2-0.2 0.1-0.5 0.3-0.6 0.5l-6.8 10.3q-0.1 0.2-0.1 0.4-0.1 0.2 0 0.4 0 0.2 0.2 0.4 0.1 0.2 0.3 0.3z"/><path fill-rule="evenodd" class="d" d="m1.7 24.3q-0.2-0.1-0.4-0.2-0.1-0.2-0.2-0.4-0.1-0.2-0.1-0.4v-6.7q0-1.2 0.4-2.2 0.5-1.1 1.3-2 0.9-0.8 1.9-1.2 1.1-0.5 2.3-0.5h42.3q1.2 0 2.2 0.5 1.1 0.4 1.9 1.2 0.9 0.9 1.3 2 0.5 1 0.5 2.2v6.7q0 0.2-0.1 0.4-0.1 0.2-0.3 0.4-0.1 0.1-0.3 0.2-0.2 0.1-0.4 0.1h-2.3v24.7q0 1.2-0.5 2.3-0.4 1-1.3 1.9-0.8 0.8-1.9 1.3-1 0.4-2.2 0.4h-35.5q-1.2 0-2.3-0.4-1.1-0.5-1.9-1.3-0.8-0.8-1.3-1.9-0.4-1.1-0.4-2.3v-24.7h-2.3q-0.2 0-0.4-0.1zm47.8 0.1h-43v24.7q0 0.8 0.3 1.5 0.3 0.6 0.8 1.2 0.6 0.5 1.2 0.8 0.7 0.3 1.5 0.3h35.5q0.7 0 1.4-0.3 0.7-0.3 1.2-0.8 0.6-0.6 0.8-1.2 0.3-0.7 0.3-1.5zm-14.1-2.1h17.5v-5.7q0-0.7-0.3-1.4-0.2-0.7-0.8-1.2-0.5-0.5-1.2-0.8-0.7-0.3-1.4-0.3h-13.8zm-12.3 0h10.1v-9.4h-10.1zm-20 0h17.9v-9.3h-14.1q-0.8 0-1.5 0.2-0.6 0.3-1.2 0.9-0.5 0.5-0.8 1.2-0.3 0.7-0.3 1.4z"/></svg>