<svg version="1.2" xmlns="http://www.w3.org/2000/svg" viewBox="0 0 55 55" width="55" height="55"><style>.a{fill:none}.b{fill:#d4e1f4}.c{fill:#165df5}.d{fill:#ea8d1f}</style><path class="a" d="m0 0h55v55h-55z"/><path class="b" d="m15 52.6v-42.7q-0.1-1 0.3-1.8 0.3-0.9 1-1.6 0.6-0.7 1.5-1 0.8-0.4 1.8-0.4h26.2q-0.1-0.8-0.5-1.5-0.5-0.6-1.1-1.1-0.6-0.5-1.3-0.8-0.7-0.2-1.5-0.3h-27.6q-0.9 0.1-1.8 0.4-0.8 0.4-1.5 1.1-0.6 0.7-1 1.6-0.3 0.8-0.3 1.8v42.7q0 0.9 0.3 1.8 0.4 0.8 1 1.5 0.7 0.7 1.5 1.1 0.9 0.4 1.8 0.4h1.3q0-0.2-0.1-0.3 0-0.2 0-0.3 0-0.2 0-0.3 0-0.2 0-0.3z"/><path fill-rule="evenodd" class="c" d="m43.7 0.7q1.1 0.5 1.9 1.4 0.8 0.8 1.2 1.9 0.4 1.1 0.4 2.3v42.7q0 1.1-0.4 2.2-0.4 1.1-1.2 2-0.8 0.8-1.9 1.3-1.1 0.5-2.3 0.5h-27.6q-1.2 0-2.3-0.5-1.1-0.5-1.9-1.3-0.8-0.9-1.2-2-0.4-1.1-0.4-2.2v-42.7q0-1.2 0.4-2.3 0.4-1.1 1.2-1.9 0.8-0.9 1.9-1.4 1.1-0.4 2.3-0.5h27.6q1.2 0.1 2.3 0.5zm1.2 5.6q0-0.7-0.2-1.4-0.3-0.6-0.8-1.2-0.5-0.5-1.1-0.8-0.7-0.2-1.4-0.3h-27.6q-0.7 0.1-1.4 0.3-0.6 0.3-1.1 0.8-0.5 0.6-0.8 1.2-0.2 0.7-0.2 1.4v42.7q0 0.7 0.2 1.3 0.3 0.7 0.8 1.2 0.5 0.5 1.1 0.8 0.7 0.3 1.4 0.3h27.6q0.7 0 1.4-0.3 0.6-0.3 1.1-0.8 0.5-0.5 0.8-1.2 0.2-0.6 0.2-1.3z"/><path class="c" d="m32.2 5.9h-9.6c-0.3 0-0.6 0.1-0.9 0.4-0.2 0.2-0.3 0.5-0.3 0.8 0 0.3 0.1 0.6 0.3 0.9 0.3 0.2 0.6 0.3 0.9 0.3h9.6c0.4 0 0.7-0.1 0.9-0.3 0.2-0.3 0.3-0.6 0.3-0.9 0-0.3-0.1-0.6-0.3-0.8-0.2-0.3-0.5-0.4-0.9-0.4z"/><path fill-rule="evenodd" class="d" d="m25.2 28.8q-1.1-0.4-2-1.3-0.9-0.9-1.4-2-0.4-1.2-0.4-2.4c0-2.6 1.5-4.8 3.8-5.8 2.3-1 5-0.4 6.8 1.4 1.8 1.7 2.3 4.4 1.4 6.8-1 2.3-3.3 3.8-5.8 3.8q-1.2 0-2.4-0.5zm0.9-9.3q-0.7 0.3-1.2 0.9-0.5 0.5-0.8 1.2-0.3 0.7-0.3 1.5c0 1.5 0.9 2.9 2.3 3.5 1.5 0.6 3.1 0.3 4.2-0.8 1.1-1.1 1.4-2.8 0.8-4.2-0.6-1.4-2-2.3-3.5-2.3q-0.8 0-1.5 0.2z"/><path fill-rule="evenodd" class="d" d="m29.5 31.8q0.9 0.2 1.8 0.5 0.9 0.4 1.6 0.9 0.8 0.6 1.5 1.2 0.7 0.7 1.2 1.6 0.5 0.8 0.9 1.7 0.3 0.9 0.5 1.9 0.2 0.9 0.2 1.9 0 0.3-0.1 0.5-0.1 0.2-0.3 0.4-0.1 0.1-0.4 0.2-0.2 0.1-0.4 0.1h-16.8q-0.2 0-0.4-0.1-0.3-0.1-0.4-0.2-0.2-0.2-0.3-0.4-0.1-0.2-0.1-0.5 0-1 0.2-1.9 0.2-1 0.5-1.9 0.4-0.9 0.9-1.7 0.5-0.9 1.2-1.6 0.7-0.6 1.5-1.2 0.7-0.5 1.6-0.9 0.9-0.3 1.8-0.5 1-0.2 1.9-0.2 0.9 0 1.9 0.2zm5.2 8.5q-0.1-0.6-0.3-1.1-0.1-0.6-0.4-1.1-0.3-0.6-0.6-1.1-0.3-0.4-0.7-0.9-1-1-2.4-1.5-1.3-0.6-2.7-0.6-1.4 0-2.7 0.6-1.3 0.5-2.4 1.5-0.4 0.5-0.7 0.9-0.3 0.5-0.6 1.1-0.3 0.5-0.4 1.1-0.2 0.5-0.3 1.1z"/></svg>