<svg version="1.2" xmlns="http://www.w3.org/2000/svg" viewBox="0 0 26 26" width="26" height="26"><style>.a{fill:none}.b{fill:#d4e1f4}.c{fill:#ea8d1f}.d{fill:#165df5}</style><path class="a" d="m0 0h26v26h-26z"/><path class="b" d="m9.5 20.7q-0.4 0-0.8-0.2-0.4-0.1-0.7-0.5-0.3-0.3-0.5-0.7-0.2-0.4-0.2-0.8v-15.9h-0.5q-0.5 0-0.9 0.1-0.4 0.2-0.7 0.5-0.3 0.3-0.5 0.7-0.1 0.4-0.2 0.9v16.4q0.1 0.5 0.2 0.9 0.2 0.4 0.5 0.7 0.3 0.3 0.7 0.5 0.4 0.1 0.9 0.1h13.6q0.4 0 0.8-0.1 0.4-0.2 0.7-0.5 0.2-0.2 0.4-0.6 0.1-0.4 0.2-0.8v-0.7z"/><path class="c" d="m12.8 12h-4.3q-0.3 0-0.4-0.2-0.2-0.1-0.2-0.4 0-0.2 0.2-0.4 0.1-0.1 0.4-0.1h4.3q0.2 0 0.4 0.1 0.2 0.2 0.2 0.4 0 0.3-0.2 0.4-0.2 0.2-0.4 0.2z"/><path class="c" d="m18.5 15.7h-10q-0.3 0-0.4-0.2-0.2-0.2-0.2-0.4 0-0.3 0.2-0.4 0.1-0.2 0.4-0.2h10q0.3 0 0.4 0.2 0.2 0.1 0.2 0.4 0 0.2-0.2 0.4-0.1 0.2-0.4 0.2z"/><path class="c" d="m18.5 19.3h-10q-0.3 0-0.4-0.2-0.2-0.1-0.2-0.4 0-0.2 0.2-0.4 0.1-0.1 0.4-0.1h10q0.3 0 0.4 0.1 0.2 0.2 0.2 0.4 0 0.3-0.2 0.4-0.1 0.2-0.4 0.2z"/><path fill-rule="evenodd" class="d" d="m21.3 2.2q0.5 0.2 0.9 0.6 0.4 0.4 0.6 0.9 0.2 0.5 0.2 1v16.7q0 0.6-0.2 1-0.2 0.5-0.6 0.9-0.3 0.3-0.8 0.5-0.5 0.2-1 0.2h-13.6q-0.6 0-1.1-0.2-0.5-0.2-0.9-0.6-0.4-0.4-0.6-0.9-0.2-0.5-0.2-1v-16.6q0-0.5 0.2-1 0.2-0.5 0.6-0.9 0.4-0.4 0.9-0.6 0.5-0.2 1.1-0.2h13.4q0.6 0 1.1 0.2zm0.6 2.5q0-0.3-0.1-0.6-0.2-0.3-0.4-0.5-0.2-0.3-0.5-0.4-0.3-0.1-0.7-0.1h-1.8v2.5q0 0.3-0.1 0.6-0.2 0.3-0.4 0.5-0.2 0.2-0.5 0.4-0.4 0.1-0.7 0.1h-6.4q-0.4 0-0.7-0.1-0.3-0.2-0.5-0.4-0.2-0.2-0.4-0.5-0.1-0.3-0.1-0.7v-2.4h-1.9q-0.3 0-0.6 0.1-0.3 0.2-0.5 0.4-0.2 0.2-0.4 0.5-0.1 0.3-0.1 0.7v16.5q0 0.3 0.1 0.6 0.2 0.3 0.4 0.5 0.2 0.3 0.5 0.4 0.3 0.1 0.7 0.1h13.6q0.3 0 0.6-0.1 0.3-0.1 0.5-0.3 0.2-0.2 0.3-0.5 0.1-0.3 0.1-0.6c0 0 0-16.7 0-16.7zm-12.2 0.9q0 0.1 0.1 0.2 0 0.1 0.1 0.1 0.1 0.1 0.2 0.1 0.1 0.1 0.2 0.1h6.4q0.1 0 0.2-0.1 0.1 0 0.2-0.1 0.1-0.1 0.1-0.2 0.1-0.1 0.1-0.2v-2.4h-7.6z"/></svg>