<svg version="1.2" xmlns="http://www.w3.org/2000/svg" viewBox="0 0 55 56" width="55" height="56"><style>.a{fill:none}.b{fill:#d4e1f4}.c{fill:#ea8d1f}.d{fill:#165df5}</style><path class="a" d="m0 0.1h55v55h-55z"/><path class="b" d="m12.7 9.1h3.7v33.9h-3.7z"/><path class="b" d="m19.5 1.7h-3.7q-0.6 0-1.2 0.3-0.5 0.2-1 0.6-0.4 0.5-0.6 1-0.3 0.6-0.3 1.2v2.6h3.7v-2.6q0-0.6 0.3-1.2 0.2-0.5 0.6-1 0.5-0.4 1-0.6 0.6-0.3 1.2-0.3z"/><path class="b" d="m19.5 50.9q-0.6 0-1.2-0.2-0.5-0.2-1-0.7-0.4-0.4-0.6-1-0.3-0.6-0.3-1.2v-3.1h-3.7v5.6q0 0.6 0.3 1.2 0.2 0.5 0.6 1 0.5 0.4 1 0.7 0.6 0.2 1.2 0.2h23.1q0.6 0 1.1-0.2 0.5-0.2 0.9-0.5 0.4-0.3 0.7-0.8 0.3-0.5 0.4-1z"/><path class="c" d="m26.4 29.8q-0.1 0-0.2 0-0.1 0-0.2 0-0.1-0.1-0.1-0.1-0.1-0.1-0.2-0.2l-1.5-1.7q-0.2-0.3-0.2-0.6 0-0.4 0.3-0.6 0.3-0.3 0.6-0.2 0.4 0 0.6 0.3l1 1.1 2.8-2.3q0.3-0.3 0.7-0.2 0.3 0 0.6 0.3 0.2 0.3 0.1 0.6 0 0.4-0.3 0.6l-3.5 2.9q0 0-0.1 0-0.1 0.1-0.1 0.1-0.1 0-0.2 0 0 0-0.1 0z"/><path fill-rule="evenodd" class="c" d="m27.4 35.2c-3.1 0-5.9-1.9-7.1-4.7-1.2-2.9-0.5-6.2 1.7-8.3 2.2-2.2 5.4-2.9 8.3-1.7 2.9 1.2 4.7 4 4.7 7.1q0 1.5-0.6 2.9-0.5 1.4-1.6 2.5-1.1 1-2.5 1.6-1.4 0.6-2.9 0.6zm0-13.6c-2.4 0-4.6 1.5-5.5 3.7-0.9 2.2-0.4 4.7 1.3 6.4 1.7 1.7 4.2 2.2 6.4 1.3 2.3-0.9 3.7-3.1 3.7-5.4q0-1.2-0.5-2.3-0.4-1.1-1.2-1.9-0.9-0.9-2-1.3-1-0.5-2.2-0.5z"/><path fill-rule="evenodd" class="d" d="m40.8 0.4q0.9 0.3 1.6 1 0.6 0.7 1 1.6 0.4 0.9 0.4 1.8v45.5q0 1-0.4 1.8-0.4 0.9-1 1.6-0.7 0.7-1.6 1-0.9 0.4-1.9 0.4h-23.1q-0.9 0-1.8-0.4-0.9-0.3-1.6-1-0.7-0.7-1-1.6-0.4-0.8-0.4-1.8v-45.5q0-0.9 0.4-1.8 0.3-0.9 1-1.6 0.7-0.7 1.6-1 0.9-0.4 1.8-0.4h23.1q1 0 1.9 0.4zm-28.1 42.6h29.3v-33.9h-29.3zm1.9-41q-0.5 0.2-1 0.7-0.4 0.4-0.6 1-0.3 0.5-0.3 1.2v2.6h29.3v-2.6q0-0.7-0.2-1.2-0.2-0.6-0.7-1-0.4-0.5-1-0.7-0.5-0.2-1.2-0.2h-23.1q-0.6 0-1.2 0.2zm25.5 51.2q0.6-0.2 1-0.7 0.5-0.4 0.7-1 0.2-0.5 0.2-1.2v-5.5h-29.3v5.5q0 0.7 0.3 1.2 0.2 0.6 0.6 1 0.5 0.5 1 0.7 0.6 0.2 1.2 0.2h23.1q0.7 0 1.2-0.2z"/><path class="d" d="m30.9 48.2h-7q-0.4 0-0.6 0.3-0.3 0.2-0.3 0.6 0 0.3 0.3 0.6 0.2 0.2 0.6 0.2h7q0.3 0 0.6-0.2 0.2-0.3 0.2-0.6 0-0.4-0.2-0.6-0.3-0.3-0.6-0.3z"/><path class="d" d="m38.9 26.7h-1.3q-0.3 0-0.6 0.2-0.2 0.3-0.3 0.7 0.1 0.3 0.3 0.6 0.3 0.2 0.6 0.2h1.3q0.4 0 0.6-0.2 0.3-0.3 0.3-0.6 0-0.4-0.3-0.7-0.2-0.2-0.6-0.2z"/><path class="d" d="m17.2 28.4q0.3 0 0.6-0.2 0.2-0.3 0.2-0.6 0-0.4-0.2-0.7-0.3-0.2-0.6-0.2h-1.3q-0.4 0-0.6 0.2-0.3 0.3-0.3 0.7 0 0.3 0.3 0.6 0.2 0.2 0.6 0.2z"/><path class="d" d="m38.5 30.5l-1.8-0.6q-0.3-0.1-0.6 0-0.3 0.2-0.5 0.5-0.1 0.3 0.1 0.7 0.1 0.3 0.5 0.4l1.8 0.6q0.3 0.1 0.6 0 0.4-0.2 0.5-0.5 0.1-0.3-0.1-0.7-0.1-0.3-0.5-0.4z"/><path class="d" d="m18.6 23.6l-1.8-0.6q-0.4-0.1-0.7 0-0.3 0.2-0.4 0.5-0.1 0.4 0 0.7 0.2 0.3 0.5 0.4l1.8 0.6q0.4 0.2 0.7 0 0.3-0.2 0.4-0.5 0.1-0.3 0-0.6-0.2-0.4-0.5-0.5z"/><path class="d" d="m36.6 25.6q0 0 0 0 0.1 0 0.1 0 0 0 0-0.1 0.1 0 0.1 0l1.8-0.5q0.4-0.1 0.6-0.5 0.1-0.3 0-0.6-0.1-0.4-0.4-0.5-0.3-0.2-0.7-0.1l-1.8 0.6q-0.3 0.1-0.5 0.3-0.1 0.3-0.1 0.6 0.1 0.3 0.3 0.6 0.2 0.2 0.6 0.2z"/><path class="d" d="m18 29.6l-1.9 0.6q-0.3 0.1-0.5 0.4-0.2 0.3-0.1 0.6 0.2 0.4 0.5 0.5 0.3 0.2 0.6 0.1l1.9-0.6q0.3-0.1 0.5-0.4 0.1-0.3 0-0.6-0.1-0.4-0.4-0.6-0.3-0.1-0.6 0z"/></svg>