<svg version="1.2" xmlns="http://www.w3.org/2000/svg" viewBox="0 0 26 26" width="26" height="26"><style>.a{fill:none}.b{fill:#d4e1f4}.c{fill:#165df5}.d{fill:#ea8d1f}</style><path class="a" d="m0 0h26v26h-26z"/><path class="b" d="m14.6 2.6h-0.1-9.8q-0.3 0-0.6 0.1-0.3 0.1-0.6 0.3-0.2 0.3-0.4 0.6-0.1 0.3-0.1 0.6v17.6q0 0.3 0.1 0.6 0.2 0.3 0.4 0.6 0.3 0.2 0.6 0.3 0.3 0.1 0.6 0.1h0.6v-16.4q0-0.4 0.1-0.7 0.1-0.3 0.4-0.5 0.2-0.2 0.5-0.4 0.3-0.1 0.7-0.1h9.8v-2.7h-2.3"/><path class="c" d="m18.9 11.9l0.9-0.8 2.4 2.9-0.8 0.7z"/><path fill-rule="evenodd" class="c" d="m20.9 14.8q0.1 0.1 0.1 0.1 0.1 0.1 0.2 0.2 0 0.1 0 0.2v6.5q0 0.4-0.2 0.8-0.1 0.4-0.4 0.7-0.3 0.4-0.7 0.5-0.4 0.2-0.9 0.2h-12.3q-0.4 0-0.8-0.2-0.4-0.2-0.7-0.5-0.3-0.3-0.5-0.7-0.1-0.4-0.1-0.8v-17.6q0-0.4 0.1-0.8 0.2-0.4 0.5-0.7 0.3-0.4 0.7-0.5 0.4-0.2 0.8-0.2h9.5q0 0 0.1 0 0.1 0 0.1 0 0.1 0.1 0.1 0.1 0 0 0.1 0.1l4.4 4.5q0.1 0 0.1 0.1 0 0 0.1 0.1 0 0 0 0.1 0 0 0 0.1v3.4q0 0.2-0.2 0.4-0.1 0.1-0.3 0.1-0.3 0-0.4-0.1-0.2-0.2-0.2-0.4v-2.8h-3.9q-0.1 0-0.2-0.1-0.1 0-0.2-0.1-0.1-0.1-0.1-0.2 0-0.1 0-0.2v-4h-9q-0.2 0-0.4 0.1-0.2 0.1-0.3 0.2-0.2 0.2-0.3 0.4 0 0.2 0 0.4v17.6q0 0.2 0 0.4 0.1 0.2 0.3 0.4 0.1 0.1 0.3 0.2 0.2 0.1 0.4 0.1h12.3q0.2 0 0.4-0.1 0.2-0.1 0.4-0.2 0.2-0.2 0.2-0.4 0.1-0.2 0.1-0.4v-6.5q0-0.1 0.1-0.2 0-0.1 0.1-0.2 0 0 0.1-0.1 0.1 0 0.3 0 0.1 0 0.2 0zm-4.1-8.2h2.6l-2.6-2.7z"/><path class="c" d="m8.2 9.8h4.6q0.2 0 0.4-0.2 0.1-0.2 0.1-0.4 0-0.2-0.1-0.4-0.2-0.2-0.4-0.2h-4.6q-0.2 0-0.4 0.2-0.1 0.2-0.1 0.4 0 0.2 0.1 0.4 0.2 0.2 0.4 0.2z"/><path class="c" d="m8.2 13.3h7.1q0.3 0 0.4-0.1 0.2-0.2 0.2-0.4 0-0.3-0.2-0.4-0.1-0.2-0.4-0.2h-7.1q-0.3 0-0.4 0.2-0.2 0.1-0.2 0.4 0 0.2 0.2 0.4 0.1 0.1 0.4 0.1z"/><path fill-rule="evenodd" class="d" d="m12.8 20.2q-0.1 0-0.2-0.1-0.1 0-0.2-0.1-0.1-0.1-0.1-0.2 0-0.1 0-0.2 0 0 0 0 0-0.1 0-0.1 0 0 0 0 0 0 0 0l0.6-3.1q0 0 0 0 0-0.1 0.1-0.1 0-0.1 0-0.1 0.1 0 0.1-0.1l6.8-6q0.4-0.3 0.8-0.5 0.5-0.1 1-0.1 0.4 0.1 0.9 0.3 0.4 0.2 0.7 0.5l0.1 0.2q0.3 0.3 0.5 0.8 0.1 0.4 0.1 0.9 0 0.4-0.2 0.9-0.2 0.4-0.6 0.7l-3.6 3.2-3.3 2.8q0 0.1 0 0.1-0.1 0-0.1 0-0.1 0.1-0.1 0.1-0.1 0-0.1 0l-3.1 0.2q0 0 0 0-0.1 0-0.1 0 0 0 0 0 0 0 0 0zm1.2-3.3l-0.5 2.1 2.2-0.1 3.2-2.8 3.5-3.2q0.2-0.1 0.3-0.3 0.1-0.3 0.2-0.5 0-0.2-0.1-0.5-0.1-0.2-0.2-0.4l-0.2-0.1q-0.1-0.2-0.4-0.3-0.2-0.1-0.4-0.1-0.3-0.1-0.5 0-0.2 0.1-0.4 0.3z"/></svg>